<svg xmlns="http://www.w3.org/2000/svg" width="888" height="212" viewBox="0 0 888 212">
<style>
@keyframes slideIn {
  0% { opacity: 0; transform: translateY(-8px); }
  100% { opacity: 1; transform: translateY(0); }
}
.box { animation: slideIn 0.3s ease-out both; }
.stat { animation: slideIn 0.5s ease-out both; }
</style>
<rect width="888" height="212" fill="#0d1117" rx="8"/>
<text x="20" y="35" font-family="monospace" font-size="14" fill="#c9d1d9" font-weight="bold" class="stat" style="animation-delay:0s">8 contributions in the last year</text>
  <rect x="20" y="60" width="13" height="13" rx="3" fill="#161b22" class="box" style="animation-delay:0.0s"/>
  <rect x="20" y="76" width="13" height="13" rx="3" fill="#161b22" class="box" style="animation-delay:0.02s"/>
  <rect x="20" y="92" width="13" height="13" rx="3" fill="#161b22" class="box" style="animation-delay:0.04s"/>
  <rect x="20" y="108" width="13" height="13" rx="3" fill="#161b22" class="box" style="animation-delay:0.06s"/>
  <rect x="20" y="124" width="13" height="13" rx="3" fill="#161b22" class="box" style="animation-delay:0.08s"/>
  <rect x="20" y="140" width="13" height="13" rx="3" fill="#161b22" class="box" style="animation-delay:0.1s"/>
  <rect x="20" y="156" width="13" height="13" rx="3" fill="#161b22" class="box" style="animation-delay:0.12s"/>
  <rect x="36" y="60" width="13" height="13" rx="3" fill="#161b22" class="box" style="animation-delay:0.02s"/>
  <rect x="36" y="76" width="13" height="13" rx="3" fill="#161b22" class="box" style="animation-delay:0.04s"/>
  <rect x="36" y="92" width="13" height="13" rx="3" fill="#161b22" class="box" style="animation-delay:0.06s"/>
  <rect x="36" y="108" width="13" height="13" rx="3" fill="#161b22" class="box" style="animation-delay:0.08s"/>
  <rect x="36" y="124" width="13" height="13" rx="3" fill="#161b22" class="box" style="animation-delay:0.1s"/>
  <rect x="36" y="140" width="13" height="13" rx="3" fill="#161b22" class="box" style="animation-delay:0.12s"/>
  <rect x="36" y="156" width="13" height="13" rx="3" fill="#161b22" class="box" style="animation-delay:0.14s"/>
  <rect x="52" y="60" width="13" height="13" rx="3" fill="#161b22" class="box" style="animation-delay:0.04s"/>
  <rect x="52" y="76" width="13" height="13" rx="3" fill="#161b22" class="box" style="animation-delay:0.06s"/>
  <rect x="52" y="92" width="13" height="13" rx="3" fill="#161b22" class="box" style="animation-delay:0.08s"/>
  <rect x="52" y="108" width="13" height="13" rx="3" fill="#161b22" class="box" style="animation-delay:0.1s"/>
  <rect x="52" y="124" width="13" height="13" rx="3" fill="#161b22" class="box" style="animation-delay:0.12s"/>
  <rect x="52" y="140" width="13" height="13" rx="3" fill="#161b22" class="box" style="animation-delay:0.14s"/>
  <rect x="52" y="156" width="13" height="13" rx="3" fill="#161b22" class="box" style="animation-delay:0.16s"/>
  <rect x="68" y="60" width="13" height="13" rx="3" fill="#161b22" class="box" style="animation-delay:0.06s"/>
  <rect x="68" y="76" width="13" height="13" rx="3" fill="#161b22" class="box" style="animation-delay:0.08s"/>
  <rect x="68" y="92" width="13" height="13" rx="3" fill="#161b22" class="box" style="animation-delay:0.1s"/>
  <rect x="68" y="108" width="13" height="13" rx="3" fill="#161b22" class="box" style="animation-delay:0.12s"/>
  <rect x="68" y="124" width="13" height="13" rx="3" fill="#161b22" class="box" style="animation-delay:0.14s"/>
  <rect x="68" y="140" width="13" height="13" rx="3" fill="#161b22" class="box" style="animation-delay:0.16s"/>
  <rect x="68" y="156" width="13" height="13" rx="3" fill="#161b22" class="box" style="animation-delay:0.18s"/>
  <rect x="84" y="60" width="13" height="13" rx="3" fill="#161b22" class="box" style="animation-delay:0.08s"/>
  <rect x="84" y="76" width="13" height="13" rx="3" fill="#161b22" class="box" style="animation-delay:0.1s"/>
  <rect x="84" y="92" width="13" height="13" rx="3" fill="#161b22" class="box" style="animation-delay:0.12s"/>
  <rect x="84" y="108" width="13" height="13" rx="3" fill="#161b22" class="box" style="animation-delay:0.14s"/>
  <rect x="84" y="124" width="13" height="13" rx="3" fill="#161b22" class="box" style="animation-delay:0.16s"/>
  <rect x="84" y="140" width="13" height="13" rx="3" fill="#161b22" class="box" style="animation-delay:0.18s"/>
  <rect x="84" y="156" width="13" height="13" rx="3" fill="#161b22" class="box" style="animation-delay:0.2s"/>
  <rect x="100" y="60" width="13" height="13" rx="3" fill="#161b22" class="box" style="animation-delay:0.1s"/>
  <rect x="100" y="76" width="13" height="13" rx="3" fill="#161b22" class="box" style="animation-delay:0.12s"/>
  <rect x="100" y="92" width="13" height="13" rx="3" fill="#161b22" class="box" style="animation-delay:0.14s"/>
  <rect x="100" y="108" width="13" height="13" rx="3" fill="#161b22" class="box" style="animation-delay:0.16s"/>
  <rect x="100" y="124" width="13" height="13" rx="3" fill="#161b22" class="box" style="animation-delay:0.18s"/>
  <rect x="100" y="140" width="13" height="13" rx="3" fill="#161b22" class="box" style="animation-delay:0.2s"/>
  <rect x="100" y="156" width="13" height="13" rx="3" fill="#161b22" class="box" style="animation-delay:0.22s"/>
  <rect x="116" y="60" width="13" height="13" rx="3" fill="#161b22" class="box" style="animation-delay:0.12s"/>
  <rect x="116" y="76" width="13" height="13" rx="3" fill="#161b22" class="box" style="animation-delay:0.14s"/>
  <rect x="116" y="92" width="13" height="13" rx="3" fill="#161b22" class="box" style="animation-delay:0.16s"/>
  <rect x="116" y="108" width="13" height="13" rx="3" fill="#161b22" class="box" style="animation-delay:0.18s"/>
  <rect x="116" y="124" width="13" height="13" rx="3" fill="#161b22" class="box" style="animation-delay:0.2s"/>
  <rect x="116" y="140" width="13" height="13" rx="3" fill="#161b22" class="box" style="animation-delay:0.22s"/>
  <rect x="116" y="156" width="13" height="13" rx="3" fill="#161b22" class="box" style="animation-delay:0.24s"/>
  <rect x="132" y="60" width="13" height="13" rx="3" fill="#161b22" class="box" style="animation-delay:0.14s"/>
  <rect x="132" y="76" width="13" height="13" rx="3" fill="#161b22" class="box" style="animation-delay:0.16s"/>
  <rect x="132" y="92" width="13" height="13" rx="3" fill="#161b22" class="box" style="animation-delay:0.18s"/>
  <rect x="132" y="108" width="13" height="13" rx="3" fill="#161b22" class="box" style="animation-delay:0.2s"/>
  <rect x="132" y="124" width="13" height="13" rx="3" fill="#161b22" class="box" style="animation-delay:0.22s"/>
  <rect x="132" y="140" width="13" height="13" rx="3" fill="#161b22" class="box" style="animation-delay:0.24s"/>
  <rect x="132" y="156" width="13" height="13" rx="3" fill="#161b22" class="box" style="animation-delay:0.26s"/>
  <rect x="148" y="60" width="13" height="13" rx="3" fill="#161b22" class="box" style="animation-delay:0.16s"/>
  <rect x="148" y="76" width="13" height="13" rx="3" fill="#161b22" class="box" style="animation-delay:0.18s"/>
  <rect x="148" y="92" width="13" height="13" rx="3" fill="#161b22" class="box" style="animation-delay:0.2s"/>
  <rect x="148" y="108" width="13" height="13" rx="3" fill="#161b22" class="box" style="animation-delay:0.22s"/>
  <rect x="148" y="124" width="13" height="13" rx="3" fill="#161b22" class="box" style="animation-delay:0.24s"/>
  <rect x="148" y="140" width="13" height="13" rx="3" fill="#161b22" class="box" style="animation-delay:0.26s"/>
  <rect x="148" y="156" width="13" height="13" rx="3" fill="#161b22" class="box" style="animation-delay:0.28s"/>
  <rect x="164" y="60" width="13" height="13" rx="3" fill="#161b22" class="box" style="animation-delay:0.18s"/>
  <rect x="164" y="76" width="13" height="13" rx="3" fill="#161b22" class="box" style="animation-delay:0.2s"/>
  <rect x="164" y="92" width="13" height="13" rx="3" fill="#161b22" class="box" style="animation-delay:0.22s"/>
  <rect x="164" y="108" width="13" height="13" rx="3" fill="#161b22" class="box" style="animation-delay:0.24s"/>
  <rect x="164" y="124" width="13" height="13" rx="3" fill="#161b22" class="box" style="animation-delay:0.26s"/>
  <rect x="164" y="140" width="13" height="13" rx="3" fill="#161b22" class="box" style="animation-delay:0.28s"/>
  <rect x="164" y="156" width="13" height="13" rx="3" fill="#161b22" class="box" style="animation-delay:0.3s"/>
  <rect x="180" y="60" width="13" height="13" rx="3" fill="#161b22" class="box" style="animation-delay:0.2s"/>
  <rect x="180" y="76" width="13" height="13" rx="3" fill="#161b22" class="box" style="animation-delay:0.22s"/>
  <rect x="180" y="92" width="13" height="13" rx="3" fill="#161b22" class="box" style="animation-delay:0.24s"/>
  <rect x="180" y="108" width="13" height="13" rx="3" fill="#161b22" class="box" style="animation-delay:0.26s"/>
  <rect x="180" y="124" width="13" height="13" rx="3" fill="#161b22" class="box" style="animation-delay:0.28s"/>
  <rect x="180" y="140" width="13" height="13" rx="3" fill="#161b22" class="box" style="animation-delay:0.3s"/>
  <rect x="180" y="156" width="13" height="13" rx="3" fill="#161b22" class="box" style="animation-delay:0.32s"/>
  <rect x="196" y="60" width="13" height="13" rx="3" fill="#161b22" class="box" style="animation-delay:0.22s"/>
  <rect x="196" y="76" width="13" height="13" rx="3" fill="#161b22" class="box" style="animation-delay:0.24s"/>
  <rect x="196" y="92" width="13" height="13" rx="3" fill="#161b22" class="box" style="animation-delay:0.26s"/>
  <rect x="196" y="108" width="13" height="13" rx="3" fill="#161b22" class="box" style="animation-delay:0.28s"/>
  <rect x="196" y="124" width="13" height="13" rx="3" fill="#161b22" class="box" style="animation-delay:0.3s"/>
  <rect x="196" y="140" width="13" height="13" rx="3" fill="#161b22" class="box" style="animation-delay:0.32s"/>
  <rect x="196" y="156" width="13" height="13" rx="3" fill="#161b22" class="box" style="animation-delay:0.34s"/>
  <rect x="212" y="60" width="13" height="13" rx="3" fill="#161b22" class="box" style="animation-delay:0.24s"/>
  <rect x="212" y="76" width="13" height="13" rx="3" fill="#161b22" class="box" style="animation-delay:0.26s"/>
  <rect x="212" y="92" width="13" height="13" rx="3" fill="#161b22" class="box" style="animation-delay:0.28s"/>
  <rect x="212" y="108" width="13" height="13" rx="3" fill="#161b22" class="box" style="animation-delay:0.3s"/>
  <rect x="212" y="124" width="13" height="13" rx="3" fill="#161b22" class="box" style="animation-delay:0.32s"/>
  <rect x="212" y="140" width="13" height="13" rx="3" fill="#161b22" class="box" style="animation-delay:0.34s"/>
  <rect x="212" y="156" width="13" height="13" rx="3" fill="#161b22" class="box" style="animation-delay:0.36s"/>
  <rect x="228" y="60" width="13" height="13" rx="3" fill="#161b22" class="box" style="animation-delay:0.26s"/>
  <rect x="228" y="76" width="13" height="13" rx="3" fill="#161b22" class="box" style="animation-delay:0.28s"/>
  <rect x="228" y="92" width="13" height="13" rx="3" fill="#161b22" class="box" style="animation-delay:0.3s"/>
  <rect x="228" y="108" width="13" height="13" rx="3" fill="#161b22" class="box" style="animation-delay:0.32s"/>
  <rect x="228" y="124" width="13" height="13" rx="3" fill="#161b22" class="box" style="animation-delay:0.34s"/>
  <rect x="228" y="140" width="13" height="13" rx="3" fill="#161b22" class="box" style="animation-delay:0.36s"/>
  <rect x="228" y="156" width="13" height="13" rx="3" fill="#161b22" class="box" style="animation-delay:0.38s"/>
  <rect x="244" y="60" width="13" height="13" rx="3" fill="#161b22" class="box" style="animation-delay:0.28s"/>
  <rect x="244" y="76" width="13" height="13" rx="3" fill="#161b22" class="box" style="animation-delay:0.3s"/>
  <rect x="244" y="92" width="13" height="13" rx="3" fill="#161b22" class="box" style="animation-delay:0.32s"/>
  <rect x="244" y="108" width="13" height="13" rx="3" fill="#161b22" class="box" style="animation-delay:0.34s"/>
  <rect x="244" y="124" width="13" height="13" rx="3" fill="#161b22" class="box" style="animation-delay:0.36s"/>
  <rect x="244" y="140" width="13" height="13" rx="3" fill="#161b22" class="box" style="animation-delay:0.38s"/>
  <rect x="244" y="156" width="13" height="13" rx="3" fill="#161b22" class="box" style="animation-delay:0.4s"/>
  <rect x="260" y="60" width="13" height="13" rx="3" fill="#161b22" class="box" style="animation-delay:0.3s"/>
  <rect x="260" y="76" width="13" height="13" rx="3" fill="#161b22" class="box" style="animation-delay:0.32s"/>
  <rect x="260" y="92" width="13" height="13" rx="3" fill="#161b22" class="box" style="animation-delay:0.34s"/>
  <rect x="260" y="108" width="13" height="13" rx="3" fill="#161b22" class="box" style="animation-delay:0.36s"/>
  <rect x="260" y="124" width="13" height="13" rx="3" fill="#161b22" class="box" style="animation-delay:0.38s"/>
  <rect x="260" y="140" width="13" height="13" rx="3" fill="#161b22" class="box" style="animation-delay:0.4s"/>
  <rect x="260" y="156" width="13" height="13" rx="3" fill="#161b22" class="box" style="animation-delay:0.42s"/>
  <rect x="276" y="60" width="13" height="13" rx="3" fill="#161b22" class="box" style="animation-delay:0.32s"/>
  <rect x="276" y="76" width="13" height="13" rx="3" fill="#161b22" class="box" style="animation-delay:0.34s"/>
  <rect x="276" y="92" width="13" height="13" rx="3" fill="#161b22" class="box" style="animation-delay:0.36s"/>
  <rect x="276" y="108" width="13" height="13" rx="3" fill="#161b22" class="box" style="animation-delay:0.38s"/>
  <rect x="276" y="124" width="13" height="13" rx="3" fill="#161b22" class="box" style="animation-delay:0.4s"/>
  <rect x="276" y="140" width="13" height="13" rx="3" fill="#161b22" class="box" style="animation-delay:0.42s"/>
  <rect x="276" y="156" width="13" height="13" rx="3" fill="#161b22" class="box" style="animation-delay:0.44s"/>
  <rect x="292" y="60" width="13" height="13" rx="3" fill="#161b22" class="box" style="animation-delay:0.34s"/>
  <rect x="292" y="76" width="13" height="13" rx="3" fill="#161b22" class="box" style="animation-delay:0.36s"/>
  <rect x="292" y="92" width="13" height="13" rx="3" fill="#161b22" class="box" style="animation-delay:0.38s"/>
  <rect x="292" y="108" width="13" height="13" rx="3" fill="#161b22" class="box" style="animation-delay:0.4s"/>
  <rect x="292" y="124" width="13" height="13" rx="3" fill="#161b22" class="box" style="animation-delay:0.42s"/>
  <rect x="292" y="140" width="13" height="13" rx="3" fill="#161b22" class="box" style="animation-delay:0.44s"/>
  <rect x="292" y="156" width="13" height="13" rx="3" fill="#161b22" class="box" style="animation-delay:0.46s"/>
  <rect x="308" y="60" width="13" height="13" rx="3" fill="#161b22" class="box" style="animation-delay:0.36s"/>
  <rect x="308" y="76" width="13" height="13" rx="3" fill="#161b22" class="box" style="animation-delay:0.38s"/>
  <rect x="308" y="92" width="13" height="13" rx="3" fill="#161b22" class="box" style="animation-delay:0.4s"/>
  <rect x="308" y="108" width="13" height="13" rx="3" fill="#161b22" class="box" style="animation-delay:0.42s"/>
  <rect x="308" y="124" width="13" height="13" rx="3" fill="#161b22" class="box" style="animation-delay:0.44s"/>
  <rect x="308" y="140" width="13" height="13" rx="3" fill="#161b22" class="box" style="animation-delay:0.46s"/>
  <rect x="308" y="156" width="13" height="13" rx="3" fill="#161b22" class="box" style="animation-delay:0.48s"/>
  <rect x="324" y="60" width="13" height="13" rx="3" fill="#161b22" class="box" style="animation-delay:0.38s"/>
  <rect x="324" y="76" width="13" height="13" rx="3" fill="#161b22" class="box" style="animation-delay:0.4s"/>
  <rect x="324" y="92" width="13" height="13" rx="3" fill="#161b22" class="box" style="animation-delay:0.42s"/>
  <rect x="324" y="108" width="13" height="13" rx="3" fill="#161b22" class="box" style="animation-delay:0.44s"/>
  <rect x="324" y="124" width="13" height="13" rx="3" fill="#161b22" class="box" style="animation-delay:0.46s"/>
  <rect x="324" y="140" width="13" height="13" rx="3" fill="#161b22" class="box" style="animation-delay:0.48s"/>
  <rect x="324" y="156" width="13" height="13" rx="3" fill="#161b22" class="box" style="animation-delay:0.5s"/>
  <rect x="340" y="60" width="13" height="13" rx="3" fill="#161b22" class="box" style="animation-delay:0.4s"/>
  <rect x="340" y="76" width="13" height="13" rx="3" fill="#161b22" class="box" style="animation-delay:0.42s"/>
  <rect x="340" y="92" width="13" height="13" rx="3" fill="#161b22" class="box" style="animation-delay:0.44s"/>
  <rect x="340" y="108" width="13" height="13" rx="3" fill="#161b22" class="box" style="animation-delay:0.46s"/>
  <rect x="340" y="124" width="13" height="13" rx="3" fill="#161b22" class="box" style="animation-delay:0.48s"/>
  <rect x="340" y="140" width="13" height="13" rx="3" fill="#161b22" class="box" style="animation-delay:0.5s"/>
  <rect x="340" y="156" width="13" height="13" rx="3" fill="#161b22" class="box" style="animation-delay:0.52s"/>
  <rect x="356" y="60" width="13" height="13" rx="3" fill="#161b22" class="box" style="animation-delay:0.42s"/>
  <rect x="356" y="76" width="13" height="13" rx="3" fill="#161b22" class="box" style="animation-delay:0.44s"/>
  <rect x="356" y="92" width="13" height="13" rx="3" fill="#161b22" class="box" style="animation-delay:0.46s"/>
  <rect x="356" y="108" width="13" height="13" rx="3" fill="#161b22" class="box" style="animation-delay:0.48s"/>
  <rect x="356" y="124" width="13" height="13" rx="3" fill="#161b22" class="box" style="animation-delay:0.5s"/>
  <rect x="356" y="140" width="13" height="13" rx="3" fill="#161b22" class="box" style="animation-delay:0.52s"/>
  <rect x="356" y="156" width="13" height="13" rx="3" fill="#161b22" class="box" style="animation-delay:0.54s"/>
  <rect x="372" y="60" width="13" height="13" rx="3" fill="#161b22" class="box" style="animation-delay:0.44s"/>
  <rect x="372" y="76" width="13" height="13" rx="3" fill="#161b22" class="box" style="animation-delay:0.46s"/>
  <rect x="372" y="92" width="13" height="13" rx="3" fill="#161b22" class="box" style="animation-delay:0.48s"/>
  <rect x="372" y="108" width="13" height="13" rx="3" fill="#161b22" class="box" style="animation-delay:0.5s"/>
  <rect x="372" y="124" width="13" height="13" rx="3" fill="#161b22" class="box" style="animation-delay:0.52s"/>
  <rect x="372" y="140" width="13" height="13" rx="3" fill="#161b22" class="box" style="animation-delay:0.54s"/>
  <rect x="372" y="156" width="13" height="13" rx="3" fill="#161b22" class="box" style="animation-delay:0.56s"/>
  <rect x="388" y="60" width="13" height="13" rx="3" fill="#161b22" class="box" style="animation-delay:0.46s"/>
  <rect x="388" y="76" width="13" height="13" rx="3" fill="#161b22" class="box" style="animation-delay:0.48s"/>
  <rect x="388" y="92" width="13" height="13" rx="3" fill="#161b22" class="box" style="animation-delay:0.5s"/>
  <rect x="388" y="108" width="13" height="13" rx="3" fill="#161b22" class="box" style="animation-delay:0.52s"/>
  <rect x="388" y="124" width="13" height="13" rx="3" fill="#161b22" class="box" style="animation-delay:0.54s"/>
  <rect x="388" y="140" width="13" height="13" rx="3" fill="#161b22" class="box" style="animation-delay:0.56s"/>
  <rect x="388" y="156" width="13" height="13" rx="3" fill="#161b22" class="box" style="animation-delay:0.58s"/>
  <rect x="404" y="60" width="13" height="13" rx="3" fill="#161b22" class="box" style="animation-delay:0.48s"/>
  <rect x="404" y="76" width="13" height="13" rx="3" fill="#161b22" class="box" style="animation-delay:0.5s"/>
  <rect x="404" y="92" width="13" height="13" rx="3" fill="#161b22" class="box" style="animation-delay:0.52s"/>
  <rect x="404" y="108" width="13" height="13" rx="3" fill="#161b22" class="box" style="animation-delay:0.54s"/>
  <rect x="404" y="124" width="13" height="13" rx="3" fill="#161b22" class="box" style="animation-delay:0.56s"/>
  <rect x="404" y="140" width="13" height="13" rx="3" fill="#161b22" class="box" style="animation-delay:0.58s"/>
  <rect x="404" y="156" width="13" height="13" rx="3" fill="#161b22" class="box" style="animation-delay:0.6s"/>
  <rect x="420" y="60" width="13" height="13" rx="3" fill="#161b22" class="box" style="animation-delay:0.5s"/>
  <rect x="420" y="76" width="13" height="13" rx="3" fill="#161b22" class="box" style="animation-delay:0.52s"/>
  <rect x="420" y="92" width="13" height="13" rx="3" fill="#161b22" class="box" style="animation-delay:0.54s"/>
  <rect x="420" y="108" width="13" height="13" rx="3" fill="#161b22" class="box" style="animation-delay:0.56s"/>
  <rect x="420" y="124" width="13" height="13" rx="3" fill="#161b22" class="box" style="animation-delay:0.58s"/>
  <rect x="420" y="140" width="13" height="13" rx="3" fill="#161b22" class="box" style="animation-delay:0.6s"/>
  <rect x="420" y="156" width="13" height="13" rx="3" fill="#161b22" class="box" style="animation-delay:0.62s"/>
  <rect x="436" y="60" width="13" height="13" rx="3" fill="#161b22" class="box" style="animation-delay:0.52s"/>
  <rect x="436" y="76" width="13" height="13" rx="3" fill="#161b22" class="box" style="animation-delay:0.54s"/>
  <rect x="436" y="92" width="13" height="13" rx="3" fill="#161b22" class="box" style="animation-delay:0.56s"/>
  <rect x="436" y="108" width="13" height="13" rx="3" fill="#161b22" class="box" style="animation-delay:0.58s"/>
  <rect x="436" y="124" width="13" height="13" rx="3" fill="#161b22" class="box" style="animation-delay:0.6s"/>
  <rect x="436" y="140" width="13" height="13" rx="3" fill="#161b22" class="box" style="animation-delay:0.62s"/>
  <rect x="436" y="156" width="13" height="13" rx="3" fill="#161b22" class="box" style="animation-delay:0.64s"/>
  <rect x="452" y="60" width="13" height="13" rx="3" fill="#161b22" class="box" style="animation-delay:0.54s"/>
  <rect x="452" y="76" width="13" height="13" rx="3" fill="#161b22" class="box" style="animation-delay:0.56s"/>
  <rect x="452" y="92" width="13" height="13" rx="3" fill="#161b22" class="box" style="animation-delay:0.58s"/>
  <rect x="452" y="108" width="13" height="13" rx="3" fill="#161b22" class="box" style="animation-delay:0.6s"/>
  <rect x="452" y="124" width="13" height="13" rx="3" fill="#161b22" class="box" style="animation-delay:0.62s"/>
  <rect x="452" y="140" width="13" height="13" rx="3" fill="#161b22" class="box" style="animation-delay:0.64s"/>
  <rect x="452" y="156" width="13" height="13" rx="3" fill="#161b22" class="box" style="animation-delay:0.66s"/>
  <rect x="468" y="60" width="13" height="13" rx="3" fill="#161b22" class="box" style="animation-delay:0.56s"/>
  <rect x="468" y="76" width="13" height="13" rx="3" fill="#161b22" class="box" style="animation-delay:0.58s"/>
  <rect x="468" y="92" width="13" height="13" rx="3" fill="#161b22" class="box" style="animation-delay:0.6s"/>
  <rect x="468" y="108" width="13" height="13" rx="3" fill="#161b22" class="box" style="animation-delay:0.62s"/>
  <rect x="468" y="124" width="13" height="13" rx="3" fill="#161b22" class="box" style="animation-delay:0.64s"/>
  <rect x="468" y="140" width="13" height="13" rx="3" fill="#161b22" class="box" style="animation-delay:0.66s"/>
  <rect x="468" y="156" width="13" height="13" rx="3" fill="#161b22" class="box" style="animation-delay:0.68s"/>
  <rect x="484" y="60" width="13" height="13" rx="3" fill="#161b22" class="box" style="animation-delay:0.58s"/>
  <rect x="484" y="76" width="13" height="13" rx="3" fill="#161b22" class="box" style="animation-delay:0.6s"/>
  <rect x="484" y="92" width="13" height="13" rx="3" fill="#161b22" class="box" style="animation-delay:0.62s"/>
  <rect x="484" y="108" width="13" height="13" rx="3" fill="#161b22" class="box" style="animation-delay:0.64s"/>
  <rect x="484" y="124" width="13" height="13" rx="3" fill="#161b22" class="box" style="animation-delay:0.66s"/>
  <rect x="484" y="140" width="13" height="13" rx="3" fill="#161b22" class="box" style="animation-delay:0.68s"/>
  <rect x="484" y="156" width="13" height="13" rx="3" fill="#161b22" class="box" style="animation-delay:0.7000000000000001s"/>
  <rect x="500" y="60" width="13" height="13" rx="3" fill="#161b22" class="box" style="animation-delay:0.6s"/>
  <rect x="500" y="76" width="13" height="13" rx="3" fill="#161b22" class="box" style="animation-delay:0.62s"/>
  <rect x="500" y="92" width="13" height="13" rx="3" fill="#161b22" class="box" style="animation-delay:0.64s"/>
  <rect x="500" y="108" width="13" height="13" rx="3" fill="#161b22" class="box" style="animation-delay:0.66s"/>
  <rect x="500" y="124" width="13" height="13" rx="3" fill="#161b22" class="box" style="animation-delay:0.68s"/>
  <rect x="500" y="140" width="13" height="13" rx="3" fill="#161b22" class="box" style="animation-delay:0.7000000000000001s"/>
  <rect x="500" y="156" width="13" height="13" rx="3" fill="#161b22" class="box" style="animation-delay:0.72s"/>
  <rect x="516" y="60" width="13" height="13" rx="3" fill="#161b22" class="box" style="animation-delay:0.62s"/>
  <rect x="516" y="76" width="13" height="13" rx="3" fill="#161b22" class="box" style="animation-delay:0.64s"/>
  <rect x="516" y="92" width="13" height="13" rx="3" fill="#161b22" class="box" style="animation-delay:0.66s"/>
  <rect x="516" y="108" width="13" height="13" rx="3" fill="#161b22" class="box" style="animation-delay:0.68s"/>
  <rect x="516" y="124" width="13" height="13" rx="3" fill="#161b22" class="box" style="animation-delay:0.7000000000000001s"/>
  <rect x="516" y="140" width="13" height="13" rx="3" fill="#161b22" class="box" style="animation-delay:0.72s"/>
  <rect x="516" y="156" width="13" height="13" rx="3" fill="#161b22" class="box" style="animation-delay:0.74s"/>
  <rect x="532" y="60" width="13" height="13" rx="3" fill="#161b22" class="box" style="animation-delay:0.64s"/>
  <rect x="532" y="76" width="13" height="13" rx="3" fill="#161b22" class="box" style="animation-delay:0.66s"/>
  <rect x="532" y="92" width="13" height="13" rx="3" fill="#161b22" class="box" style="animation-delay:0.68s"/>
  <rect x="532" y="108" width="13" height="13" rx="3" fill="#161b22" class="box" style="animation-delay:0.7000000000000001s"/>
  <rect x="532" y="124" width="13" height="13" rx="3" fill="#161b22" class="box" style="animation-delay:0.72s"/>
  <rect x="532" y="140" width="13" height="13" rx="3" fill="#161b22" class="box" style="animation-delay:0.74s"/>
  <rect x="532" y="156" width="13" height="13" rx="3" fill="#161b22" class="box" style="animation-delay:0.76s"/>
  <rect x="548" y="60" width="13" height="13" rx="3" fill="#161b22" class="box" style="animation-delay:0.66s"/>
  <rect x="548" y="76" width="13" height="13" rx="3" fill="#161b22" class="box" style="animation-delay:0.68s"/>
  <rect x="548" y="92" width="13" height="13" rx="3" fill="#161b22" class="box" style="animation-delay:0.7000000000000001s"/>
  <rect x="548" y="108" width="13" height="13" rx="3" fill="#161b22" class="box" style="animation-delay:0.72s"/>
  <rect x="548" y="124" width="13" height="13" rx="3" fill="#161b22" class="box" style="animation-delay:0.74s"/>
  <rect x="548" y="140" width="13" height="13" rx="3" fill="#161b22" class="box" style="animation-delay:0.76s"/>
  <rect x="548" y="156" width="13" height="13" rx="3" fill="#161b22" class="box" style="animation-delay:0.78s"/>
  <rect x="564" y="60" width="13" height="13" rx="3" fill="#161b22" class="box" style="animation-delay:0.68s"/>
  <rect x="564" y="76" width="13" height="13" rx="3" fill="#161b22" class="box" style="animation-delay:0.7000000000000001s"/>
  <rect x="564" y="92" width="13" height="13" rx="3" fill="#161b22" class="box" style="animation-delay:0.72s"/>
  <rect x="564" y="108" width="13" height="13" rx="3" fill="#161b22" class="box" style="animation-delay:0.74s"/>
  <rect x="564" y="124" width="13" height="13" rx="3" fill="#161b22" class="box" style="animation-delay:0.76s"/>
  <rect x="564" y="140" width="13" height="13" rx="3" fill="#161b22" class="box" style="animation-delay:0.78s"/>
  <rect x="564" y="156" width="13" height="13" rx="3" fill="#161b22" class="box" style="animation-delay:0.8s"/>
  <rect x="580" y="60" width="13" height="13" rx="3" fill="#161b22" class="box" style="animation-delay:0.7000000000000001s"/>
  <rect x="580" y="76" width="13" height="13" rx="3" fill="#161b22" class="box" style="animation-delay:0.72s"/>
  <rect x="580" y="92" width="13" height="13" rx="3" fill="#161b22" class="box" style="animation-delay:0.74s"/>
  <rect x="580" y="108" width="13" height="13" rx="3" fill="#161b22" class="box" style="animation-delay:0.76s"/>
  <rect x="580" y="124" width="13" height="13" rx="3" fill="#161b22" class="box" style="animation-delay:0.78s"/>
  <rect x="580" y="140" width="13" height="13" rx="3" fill="#161b22" class="box" style="animation-delay:0.8s"/>
  <rect x="580" y="156" width="13" height="13" rx="3" fill="#161b22" class="box" style="animation-delay:0.8200000000000001s"/>
  <rect x="596" y="60" width="13" height="13" rx="3" fill="#161b22" class="box" style="animation-delay:0.72s"/>
  <rect x="596" y="76" width="13" height="13" rx="3" fill="#161b22" class="box" style="animation-delay:0.74s"/>
  <rect x="596" y="92" width="13" height="13" rx="3" fill="#161b22" class="box" style="animation-delay:0.76s"/>
  <rect x="596" y="108" width="13" height="13" rx="3" fill="#161b22" class="box" style="animation-delay:0.78s"/>
  <rect x="596" y="124" width="13" height="13" rx="3" fill="#161b22" class="box" style="animation-delay:0.8s"/>
  <rect x="596" y="140" width="13" height="13" rx="3" fill="#161b22" class="box" style="animation-delay:0.8200000000000001s"/>
  <rect x="596" y="156" width="13" height="13" rx="3" fill="#161b22" class="box" style="animation-delay:0.84s"/>
  <rect x="612" y="60" width="13" height="13" rx="3" fill="#161b22" class="box" style="animation-delay:0.74s"/>
  <rect x="612" y="76" width="13" height="13" rx="3" fill="#161b22" class="box" style="animation-delay:0.76s"/>
  <rect x="612" y="92" width="13" height="13" rx="3" fill="#161b22" class="box" style="animation-delay:0.78s"/>
  <rect x="612" y="108" width="13" height="13" rx="3" fill="#161b22" class="box" style="animation-delay:0.8s"/>
  <rect x="612" y="124" width="13" height="13" rx="3" fill="#161b22" class="box" style="animation-delay:0.8200000000000001s"/>
  <rect x="612" y="140" width="13" height="13" rx="3" fill="#161b22" class="box" style="animation-delay:0.84s"/>
  <rect x="612" y="156" width="13" height="13" rx="3" fill="#161b22" class="box" style="animation-delay:0.86s"/>
  <rect x="628" y="60" width="13" height="13" rx="3" fill="#161b22" class="box" style="animation-delay:0.76s"/>
  <rect x="628" y="76" width="13" height="13" rx="3" fill="#161b22" class="box" style="animation-delay:0.78s"/>
  <rect x="628" y="92" width="13" height="13" rx="3" fill="#161b22" class="box" style="animation-delay:0.8s"/>
  <rect x="628" y="108" width="13" height="13" rx="3" fill="#161b22" class="box" style="animation-delay:0.8200000000000001s"/>
  <rect x="628" y="124" width="13" height="13" rx="3" fill="#161b22" class="box" style="animation-delay:0.84s"/>
  <rect x="628" y="140" width="13" height="13" rx="3" fill="#161b22" class="box" style="animation-delay:0.86s"/>
  <rect x="628" y="156" width="13" height="13" rx="3" fill="#161b22" class="box" style="animation-delay:0.88s"/>
  <rect x="644" y="60" width="13" height="13" rx="3" fill="#161b22" class="box" style="animation-delay:0.78s"/>
  <rect x="644" y="76" width="13" height="13" rx="3" fill="#161b22" class="box" style="animation-delay:0.8s"/>
  <rect x="644" y="92" width="13" height="13" rx="3" fill="#161b22" class="box" style="animation-delay:0.8200000000000001s"/>
  <rect x="644" y="108" width="13" height="13" rx="3" fill="#161b22" class="box" style="animation-delay:0.84s"/>
  <rect x="644" y="124" width="13" height="13" rx="3" fill="#161b22" class="box" style="animation-delay:0.86s"/>
  <rect x="644" y="140" width="13" height="13" rx="3" fill="#161b22" class="box" style="animation-delay:0.88s"/>
  <rect x="644" y="156" width="13" height="13" rx="3" fill="#161b22" class="box" style="animation-delay:0.9s"/>
  <rect x="660" y="60" width="13" height="13" rx="3" fill="#161b22" class="box" style="animation-delay:0.8s"/>
  <rect x="660" y="76" width="13" height="13" rx="3" fill="#161b22" class="box" style="animation-delay:0.8200000000000001s"/>
  <rect x="660" y="92" width="13" height="13" rx="3" fill="#161b22" class="box" style="animation-delay:0.84s"/>
  <rect x="660" y="108" width="13" height="13" rx="3" fill="#161b22" class="box" style="animation-delay:0.86s"/>
  <rect x="660" y="124" width="13" height="13" rx="3" fill="#161b22" class="box" style="animation-delay:0.88s"/>
  <rect x="660" y="140" width="13" height="13" rx="3" fill="#161b22" class="box" style="animation-delay:0.9s"/>
  <rect x="660" y="156" width="13" height="13" rx="3" fill="#161b22" class="box" style="animation-delay:0.92s"/>
  <rect x="676" y="60" width="13" height="13" rx="3" fill="#161b22" class="box" style="animation-delay:0.8200000000000001s"/>
  <rect x="676" y="76" width="13" height="13" rx="3" fill="#161b22" class="box" style="animation-delay:0.84s"/>
  <rect x="676" y="92" width="13" height="13" rx="3" fill="#161b22" class="box" style="animation-delay:0.86s"/>
  <rect x="676" y="108" width="13" height="13" rx="3" fill="#161b22" class="box" style="animation-delay:0.88s"/>
  <rect x="676" y="124" width="13" height="13" rx="3" fill="#161b22" class="box" style="animation-delay:0.9s"/>
  <rect x="676" y="140" width="13" height="13" rx="3" fill="#161b22" class="box" style="animation-delay:0.92s"/>
  <rect x="676" y="156" width="13" height="13" rx="3" fill="#161b22" class="box" style="animation-delay:0.9400000000000001s"/>
  <rect x="692" y="60" width="13" height="13" rx="3" fill="#161b22" class="box" style="animation-delay:0.84s"/>
  <rect x="692" y="76" width="13" height="13" rx="3" fill="#161b22" class="box" style="animation-delay:0.86s"/>
  <rect x="692" y="92" width="13" height="13" rx="3" fill="#161b22" class="box" style="animation-delay:0.88s"/>
  <rect x="692" y="108" width="13" height="13" rx="3" fill="#161b22" class="box" style="animation-delay:0.9s"/>
  <rect x="692" y="124" width="13" height="13" rx="3" fill="#161b22" class="box" style="animation-delay:0.92s"/>
  <rect x="692" y="140" width="13" height="13" rx="3" fill="#161b22" class="box" style="animation-delay:0.9400000000000001s"/>
  <rect x="692" y="156" width="13" height="13" rx="3" fill="#161b22" class="box" style="animation-delay:0.96s"/>
  <rect x="708" y="60" width="13" height="13" rx="3" fill="#161b22" class="box" style="animation-delay:0.86s"/>
  <rect x="708" y="76" width="13" height="13" rx="3" fill="#161b22" class="box" style="animation-delay:0.88s"/>
  <rect x="708" y="92" width="13" height="13" rx="3" fill="#161b22" class="box" style="animation-delay:0.9s"/>
  <rect x="708" y="108" width="13" height="13" rx="3" fill="#161b22" class="box" style="animation-delay:0.92s"/>
  <rect x="708" y="124" width="13" height="13" rx="3" fill="#161b22" class="box" style="animation-delay:0.9400000000000001s"/>
  <rect x="708" y="140" width="13" height="13" rx="3" fill="#161b22" class="box" style="animation-delay:0.96s"/>
  <rect x="708" y="156" width="13" height="13" rx="3" fill="#161b22" class="box" style="animation-delay:0.98s"/>
  <rect x="724" y="60" width="13" height="13" rx="3" fill="#161b22" class="box" style="animation-delay:0.88s"/>
  <rect x="724" y="76" width="13" height="13" rx="3" fill="#161b22" class="box" style="animation-delay:0.9s"/>
  <rect x="724" y="92" width="13" height="13" rx="3" fill="#161b22" class="box" style="animation-delay:0.92s"/>
  <rect x="724" y="108" width="13" height="13" rx="3" fill="#161b22" class="box" style="animation-delay:0.9400000000000001s"/>
  <rect x="724" y="124" width="13" height="13" rx="3" fill="#161b22" class="box" style="animation-delay:0.96s"/>
  <rect x="724" y="140" width="13" height="13" rx="3" fill="#161b22" class="box" style="animation-delay:0.98s"/>
  <rect x="724" y="156" width="13" height="13" rx="3" fill="#161b22" class="box" style="animation-delay:1.0s"/>
  <rect x="740" y="60" width="13" height="13" rx="3" fill="#161b22" class="box" style="animation-delay:0.9s"/>
  <rect x="740" y="76" width="13" height="13" rx="3" fill="#161b22" class="box" style="animation-delay:0.92s"/>
  <rect x="740" y="92" width="13" height="13" rx="3" fill="#161b22" class="box" style="animation-delay:0.9400000000000001s"/>
  <rect x="740" y="108" width="13" height="13" rx="3" fill="#161b22" class="box" style="animation-delay:0.96s"/>
  <rect x="740" y="124" width="13" height="13" rx="3" fill="#161b22" class="box" style="animation-delay:0.98s"/>
  <rect x="740" y="140" width="13" height="13" rx="3" fill="#161b22" class="box" style="animation-delay:1.0s"/>
  <rect x="740" y="156" width="13" height="13" rx="3" fill="#161b22" class="box" style="animation-delay:1.02s"/>
  <rect x="756" y="60" width="13" height="13" rx="3" fill="#161b22" class="box" style="animation-delay:0.92s"/>
  <rect x="756" y="76" width="13" height="13" rx="3" fill="#161b22" class="box" style="animation-delay:0.9400000000000001s"/>
  <rect x="756" y="92" width="13" height="13" rx="3" fill="#161b22" class="box" style="animation-delay:0.96s"/>
  <rect x="756" y="108" width="13" height="13" rx="3" fill="#161b22" class="box" style="animation-delay:0.98s"/>
  <rect x="756" y="124" width="13" height="13" rx="3" fill="#161b22" class="box" style="animation-delay:1.0s"/>
  <rect x="756" y="140" width="13" height="13" rx="3" fill="#161b22" class="box" style="animation-delay:1.02s"/>
  <rect x="756" y="156" width="13" height="13" rx="3" fill="#161b22" class="box" style="animation-delay:1.04s"/>
  <rect x="772" y="60" width="13" height="13" rx="3" fill="#161b22" class="box" style="animation-delay:0.9400000000000001s"/>
  <rect x="772" y="76" width="13" height="13" rx="3" fill="#161b22" class="box" style="animation-delay:0.96s"/>
  <rect x="772" y="92" width="13" height="13" rx="3" fill="#161b22" class="box" style="animation-delay:0.98s"/>
  <rect x="772" y="108" width="13" height="13" rx="3" fill="#161b22" class="box" style="animation-delay:1.0s"/>
  <rect x="772" y="124" width="13" height="13" rx="3" fill="#161b22" class="box" style="animation-delay:1.02s"/>
  <rect x="772" y="140" width="13" height="13" rx="3" fill="#161b22" class="box" style="animation-delay:1.04s"/>
  <rect x="772" y="156" width="13" height="13" rx="3" fill="#161b22" class="box" style="animation-delay:1.06s"/>
  <rect x="788" y="60" width="13" height="13" rx="3" fill="#161b22" class="box" style="animation-delay:0.96s"/>
  <rect x="788" y="76" width="13" height="13" rx="3" fill="#161b22" class="box" style="animation-delay:0.98s"/>
  <rect x="788" y="92" width="13" height="13" rx="3" fill="#161b22" class="box" style="animation-delay:1.0s"/>
  <rect x="788" y="108" width="13" height="13" rx="3" fill="#161b22" class="box" style="animation-delay:1.02s"/>
  <rect x="788" y="124" width="13" height="13" rx="3" fill="#161b22" class="box" style="animation-delay:1.04s"/>
  <rect x="788" y="140" width="13" height="13" rx="3" fill="#161b22" class="box" style="animation-delay:1.06s"/>
  <rect x="788" y="156" width="13" height="13" rx="3" fill="#161b22" class="box" style="animation-delay:1.08s"/>
  <rect x="804" y="60" width="13" height="13" rx="3" fill="#161b22" class="box" style="animation-delay:0.98s"/>
  <rect x="804" y="76" width="13" height="13" rx="3" fill="#161b22" class="box" style="animation-delay:1.0s"/>
  <rect x="804" y="92" width="13" height="13" rx="3" fill="#161b22" class="box" style="animation-delay:1.02s"/>
  <rect x="804" y="108" width="13" height="13" rx="3" fill="#161b22" class="box" style="animation-delay:1.04s"/>
  <rect x="804" y="124" width="13" height="13" rx="3" fill="#161b22" class="box" style="animation-delay:1.06s"/>
  <rect x="804" y="140" width="13" height="13" rx="3" fill="#161b22" class="box" style="animation-delay:1.08s"/>
  <rect x="804" y="156" width="13" height="13" rx="3" fill="#161b22" class="box" style="animation-delay:1.1s"/>
  <rect x="820" y="60" width="13" height="13" rx="3" fill="#161b22" class="box" style="animation-delay:1.0s"/>
  <rect x="820" y="76" width="13" height="13" rx="3" fill="#161b22" class="box" style="animation-delay:1.02s"/>
  <rect x="820" y="92" width="13" height="13" rx="3" fill="#161b22" class="box" style="animation-delay:1.04s"/>
  <rect x="820" y="108" width="13" height="13" rx="3" fill="#161b22" class="box" style="animation-delay:1.06s"/>
  <rect x="820" y="124" width="13" height="13" rx="3" fill="#161b22" class="box" style="animation-delay:1.08s"/>
  <rect x="820" y="140" width="13" height="13" rx="3" fill="#161b22" class="box" style="animation-delay:1.1s"/>
  <rect x="820" y="156" width="13" height="13" rx="3" fill="#161b22" class="box" style="animation-delay:1.12s"/>
  <rect x="836" y="60" width="13" height="13" rx="3" fill="#161b22" class="box" style="animation-delay:1.02s"/>
  <rect x="836" y="76" width="13" height="13" rx="3" fill="#161b22" class="box" style="animation-delay:1.04s"/>
  <rect x="836" y="92" width="13" height="13" rx="3" fill="#161b22" class="box" style="animation-delay:1.06s"/>
  <rect x="836" y="108" width="13" height="13" rx="3" fill="#161b22" class="box" style="animation-delay:1.08s"/>
  <rect x="836" y="124" width="13" height="13" rx="3" fill="#161b22" class="box" style="animation-delay:1.1s"/>
  <rect x="836" y="140" width="13" height="13" rx="3" fill="#39d353" class="box" style="animation-delay:1.12s"/>
  <rect x="836" y="156" width="13" height="13" rx="3" fill="#39d353" class="box" style="animation-delay:1.1400000000000001s"/>
  <rect x="852" y="60" width="13" height="13" rx="3" fill="#161b22" class="box" style="animation-delay:1.04s"/>
  <rect x="852" y="76" width="13" height="13" rx="3" fill="#161b22" class="box" style="animation-delay:1.06s"/>
  <rect x="852" y="92" width="13" height="13" rx="3" fill="#161b22" class="box" style="animation-delay:1.08s"/>
  <rect x="852" y="108" width="13" height="13" rx="3" fill="#161b22" class="box" style="animation-delay:1.1s"/>
  <rect x="852" y="124" width="13" height="13" rx="3" fill="#161b22" class="box" style="animation-delay:1.12s"/>
  <rect x="852" y="140" width="13" height="13" rx="3" fill="#161b22" class="box" style="animation-delay:1.1400000000000001s"/>
  <rect x="852" y="156" width="13" height="13" rx="3" fill="#161b22" class="box" style="animation-delay:1.16s"/>
<text x="20" y="192" font-family="monospace" font-size="12" fill="#8b949e" class="stat" style="animation-delay:1s">Streak: 0d · Best: 4 on 2026-07-18</text>
<text x="520" y="192" font-family="monospace" font-size="11" fill="#8b949e" class="stat" style="animation-delay:1s">Less</text>
  <rect x="560" y="183" width="11" height="11" rx="2" fill="#161b22" class="stat" style="animation-delay:1.2s"/>
  <rect x="577" y="183" width="11" height="11" rx="2" fill="#0e4429" class="stat" style="animation-delay:1.25s"/>
  <rect x="594" y="183" width="11" height="11" rx="2" fill="#006d32" class="stat" style="animation-delay:1.3s"/>
  <rect x="611" y="183" width="11" height="11" rx="2" fill="#26a641" class="stat" style="animation-delay:1.35s"/>
  <rect x="628" y="183" width="11" height="11" rx="2" fill="#39d353" class="stat" style="animation-delay:1.4s"/>
  <rect x="645" y="183" width="11" height="11" rx="2" fill="#69f0a0" class="stat" style="animation-delay:1.45s"/>
<text x="666" y="192" font-family="monospace" font-size="11" fill="#8b949e" class="stat" style="animation-delay:1s">More</text>
</svg>